<?xml version="1.0" ?><svg enable-background="new 0 0 512 512" id="Layer_1" version="1.1" viewBox="0 0 512 512" xml:space="preserve" xmlns="http://www.w3.org/2000/svg" xmlns:xlink="http://www.w3.org/1999/xlink"><g><g><linearGradient gradientUnits="userSpaceOnUse" id="SVGID_1_" x1="-0.0000027" x2="512" y1="256" y2="256"><stop offset="0" style="stop-color:#00AEEE"/><stop offset="1" style="stop-color:#0095DA"/></linearGradient><circle cx="256" cy="256" fill="url(#SVGID_1_)" r="256"/><linearGradient gradientUnits="userSpaceOnUse" id="SVGID_2_" x1="42.6666641" x2="469.3333435" y1="256.0005188" y2="256.0005188"><stop offset="0" style="stop-color:#0095DA"/><stop offset="1" style="stop-color:#00AEEE"/></linearGradient><path d="M256,469.3338623c-117.631012,0-213.3333435-95.7023926-213.3333435-213.3333435    c0-117.6314545,95.7023239-213.333313,213.3333435-213.333313c117.6362,0,213.3333435,95.7018661,213.3333435,213.333313    C469.3333435,373.6314697,373.6362,469.3338623,256,469.3338623z" fill="url(#SVGID_2_)"/></g><g><path d="M318.6239929,166.5119934h-27.6479797C288.6719971,153.7440033,277.4880066,144,264,144    c-13.4400024,0-24.6239929,9.7440033-26.9279938,22.5119934H209.423996v48.6720123h109.1999969V166.5119934z" opacity="0.3"/><rect height="23.6016006" opacity="0.3" width="23.6021328" x="201.6020508" y="321.3754578"/><rect height="23.6016006" opacity="0.3" width="23.6021328" x="201.6020508" y="254.4752045"/><path d="M328.2233887,185.7120056v39.0703888H199.8233948v-39.0703888h-29.7593994V384h187.8720093V185.7120056    H328.2233887z M249.0020599,251.5765381h43.601059v9.6000061h-43.601059V251.5765381z M249.0020599,318.4762573h43.601059    v9.6000061h-43.601059V318.4762573z M234.804184,354.5770569h-42.802124v-42.8015747h42.802124V354.5770569z     M234.804184,287.6767883h-42.802124v-42.80159h42.802124V287.6767883z M331.2020569,347.8762817h-82.1999969v-9.6000061    h82.1999969V347.8762817z M331.2020569,280.976532h-82.1999969v-9.6000061h82.1999969V280.976532z" opacity="0.3"/></g><g><path d="M310.6239929,158.5119934h-27.6479797C280.6719971,145.7440033,269.4880066,136,256,136    c-13.4400024,0-24.6239929,9.7440033-26.9279938,22.5119934H201.423996v48.6720123h109.1999969V158.5119934z" fill="#FFFFFF"/><rect fill="#FFFFFF" height="23.6016006" width="23.6021328" x="193.6020508" y="313.3754578"/><rect fill="#FFFFFF" height="23.6016006" width="23.6021328" x="193.6020508" y="246.4752045"/><path d="M320.2233887,177.7120056v39.0703888H191.8233948v-39.0703888h-29.7593994V376h187.8720093V177.7120056    H320.2233887z M241.0020599,243.5765381h43.601059v9.5999908h-43.601059V243.5765381z M241.0020599,310.4762573h43.601059    v9.6000061h-43.601059V310.4762573z M226.804184,346.5770569h-42.802124v-42.8015747h42.802124V346.5770569z     M226.804184,279.6767883h-42.802124v-42.80159h42.802124V279.6767883z M323.2020569,339.8762817h-82.1999969v-9.6000061    h82.1999969V339.8762817z M323.2020569,272.976532h-82.1999969v-9.6000061h82.1999969V272.976532z" fill="#FFFFFF"/></g></g></svg>